<?xml version="1.0" encoding="iso-8859-1"?>
<!-- Generator: Adobe Illustrator 19.0.0, SVG Export Plug-In . SVG Version: 6.00 Build 0)  -->
<svg version="1.1" id="Capa_1" xmlns="http://www.w3.org/2000/svg" xmlns:xlink="http://www.w3.org/1999/xlink" x="0px" y="0px"
	 viewBox="0 0 418.882 418.882" style="enable-background:new 0 0 418.882 418.882;" xml:space="preserve">
<path style="fill:#4DCFE0;" d="M331.755,401.18c-28.735,0-52.245-23.51-52.245-52.245c0-28.735,23.51-52.245,52.245-52.245
	c28.735,0,52.245,23.51,52.245,52.245C384,377.67,360.49,401.18,331.755,401.18z M331.755,328.037
	c-11.494,0-20.898,9.404-20.898,20.898s9.404,20.898,20.898,20.898s20.898-9.404,20.898-20.898S343.249,328.037,331.755,328.037z"/>
<path style="fill:#1185E0;" d="M415.869,95.025c-3.135-3.657-7.314-6.269-12.539-6.269H96.653L82.547,29.719
	c-1.567-7.314-7.837-12.016-15.151-12.016H15.673C6.792,17.702,0,24.494,0,33.376s6.792,15.673,15.673,15.673h39.184l51.2,213.159
	c1.567,7.314,7.837,12.016,15.151,12.016h243.984c7.314,0,13.584-4.702,15.151-12.016l38.139-154.122
	C419.527,103.384,418.482,98.682,415.869,95.025z M353.176,242.878H133.747L104.49,120.102h278.988L353.176,242.878z"/>
<path style="fill:#4DCFE0;" d="M142.106,401.18c-28.735,0-52.245-23.51-52.245-52.245c0-28.735,23.51-52.245,52.245-52.245
	s52.245,23.51,52.245,52.245C194.351,377.67,170.841,401.18,142.106,401.18z M142.106,328.037c-11.494,0-20.898,9.404-20.898,20.898
	s9.404,20.898,20.898,20.898s20.898-9.404,20.898-20.898S153.6,328.037,142.106,328.037z"/>
<g>
</g>
<g>
</g>
<g>
</g>
<g>
</g>
<g>
</g>
<g>
</g>
<g>
</g>
<g>
</g>
<g>
</g>
<g>
</g>
<g>
</g>
<g>
</g>
<g>
</g>
<g>
</g>
<g>
</g>
</svg>
